<svg xmlns="http://www.w3.org/2000/svg" width="20" height="20" viewBox="0 0 20 20">
    <g fill="none" fill-rule="evenodd">
        <g>
            <g>
                <g>
                    <g>
                        <path fill="#FFF" d="M13.396.596c.276 0 .5.224.5.5v11c0 .276-.224.5-.5.5s-.5-.224-.5-.5v-11c0-.276.224-.5.5-.5z" transform="translate(-253 -45) translate(0 24) translate(240 13) translate(13 8) rotate(-135 13.396 6.596)"/>
                        <path stroke="#FFF" stroke-linecap="round" d="M17 11v4.91c0 .602-.448 1.09-1 1.09H4c-.552 0-1-.488-1-1.09V4.09C3 3.487 3.448 3 4 3h4.998" transform="translate(-253 -45) translate(0 24) translate(240 13) translate(13 8)"/>
                        <path stroke="#FFF" stroke-linecap="round" stroke-linejoin="round" d="M13.5 2.5L17.5 2.5 17.5 6.5" transform="translate(-253 -45) translate(0 24) translate(240 13) translate(13 8) matrix(0 -1 -1 0 20 20)"/>
                    </g>
                </g>
            </g>
        </g>
    </g>
</svg>
