<svg width="65" height="21" xmlns="http://www.w3.org/2000/svg">
    <g fill="#F40009" fill-rule="evenodd">
        <path d="M44.67 1.522S43.476 2 42.087 3.531c-1.395 1.537-2.199 3.258-1.6 3.713.23.175.76.204 1.725-.663.752-.676 1.517-1.56 2.036-2.827.623-1.519.424-2.214.424-2.232m7.61 2.754c-1.545-.791-2.672-1.759-3.849-2.362-1.122-.575-1.847-.814-2.751-.693-.15.02-.375.093-.375.093s.469 1.592-1.387 4.272c-1.88 2.714-3.586 2.7-4.07 1.95-.51-.787.145-2.393 1.24-3.82C42.236 2.223 44.251.982 44.251.982s-.643-.392-2.222.503c-1.537.871-4.191 2.945-6.644 6.443-2.453 3.498-2.943 5.423-3.297 6.938-.354 1.516-.03 3.137 1.65 3.137 1.682 0 3.635-2.564 4.185-3.456 1.024-1.66 1.693-4.204.298-3.854-.688.174-1.244.936-1.594 1.668-.361.753-.506 1.473-.506 1.473s-.58.207-1.36.791c-.78.584-1.29 1.142-1.29 1.142s.004-1.21.969-3.17 2.737-2.857 3.74-2.94c.904-.075 2.08.693 1.085 3.528-.995 2.835-3.935 6.273-7.026 6.318-2.852.042-4.721-3.599-.754-9.952C35.873 2.525 41.029.37 42.703.128c1.673-.242 2.216.497 2.216.497s1.403-.648 3.182-.528c2.043.139 3.625 1.584 5.709 2.599a36.289 36.289 0 0 0-1.528 1.58m9.178-2.37c-1.414.91-3.376 1.735-5.258 1.553a29 29 0 0 0-1.498 1.687c3.267.644 6.124-1.38 7.646-3.104C63.299.967 63.767.007 63.767.007s-.906.998-2.307 1.9m-4.342 9.202c.04-.071.06-.135.06-.135s-.038-.275-.3-.287c-.31-.014-.735.046-1.846 1.277-1.107 1.227-1.78 2.292-2.363 3.357-.637 1.165-.893 2.032-.527 2.254.103.063.26.07.384.04.25-.06.53-.291.958-.786.2-.231.422-.56.688-.925.732-1.002 2.579-4.159 2.946-4.795m-11.556 1.347c.186-.487.42-1.44-.072-1.812-.528-.4-1.873.535-1.88 1.49-.007.98.948 1.421 1.179 1.483.13.036.176.03.239-.075.04-.068.348-.6.534-1.086m-1.016 1.78a4.173 4.173 0 0 1-.925-.59c-.452-.376-.68-.81-.698-.842-.018-.033-.038-.008-.058.02-.02.028-.102.099-.82 1.155-.72 1.055-1.818 3.231-.82 3.6.64.237 1.702-.88 2.283-1.623a13.803 13.803 0 0 0 1.07-1.63c.028-.062.003-.077-.032-.09m11.315 2.51c-.271.435-.578 1.264.317.746 1.089-.63 2.64-2.985 2.64-2.985h.702s-.925 1.463-2.131 2.8c-1.104 1.223-2.451 2.336-3.4 2.226-1.108-.128-.762-1.583-.762-1.583s-1.59 1.689-2.683 1.568c-1.481-.163-1.03-1.995-1.03-1.995s-1.675 2.06-2.815 1.995c-1.79-.103-1.342-2.287-.845-3.815a34.78 34.78 0 0 1 .514-1.465s-.179.047-.559.103c-.199.03-.563.049-.563.049s-.743 1.316-1.339 2.108c-.596.791-3.13 3.515-4.622 2.97-1.377-.503-.924-2.615-.12-4.293 1.17-2.445 4.463-5.96 6.363-5.5 1.969.477.046 4.072.046 4.072s.002.014.021.021c.04.016.141.025.38-.02.378-.072.72-.215.72-.215s1.979-4.148 4.165-6.862c2.186-2.714 6.548-7.386 8.263-6.257.42.276.228 1.235-.335 2.397-.25.078-.508.148-.773.203.377-.685.627-1.263.7-1.665.257-1.402-3.015 1.553-5.352 4.734-2.337 3.182-3.74 6.062-3.74 6.062s.472-.267 1.207-.86c.767-.618 1.823-1.588 2.97-2.774a32.482 32.482 0 0 0 2.527-2.918 6.97 6.97 0 0 0 .744-.077c-.947 1.275-1.943 2.44-2.788 3.297-.93.942-1.94 1.96-2.82 2.698-1.395 1.175-2.473 1.84-2.473 1.84s-2.049 4.122-.935 4.388c.654.156 1.946-1.835 1.946-1.835s1.683-2.573 2.699-3.729c1.385-1.578 2.578-2.488 3.77-2.508.694-.012 1.105.729 1.105.729l.327-.506h2.013s-3.755 6.377-4.054 6.856m5.599-14.84c-1.414.91-3.376 1.735-5.258 1.553a29 29 0 0 0-1.498 1.687c3.267.644 6.124-1.38 7.646-3.104C63.299.967 63.767.007 63.767.007s-.906.998-2.307 1.9m-37.303 9.197c.814-1.115 3.058-5.026 3.058-5.026s-.037-.274-.299-.286c-.311-.014-.825.09-1.858 1.38-1.033 1.289-1.826 2.317-2.41 3.382-.636 1.165-.915 1.987-.55 2.209.104.063.26.07.385.04.24-.06.552-.3.98-.794.2-.231.428-.54.694-.905m-10.268-5.28c-.528-.4-1.874.535-1.88 1.49-.008.98 1.215 1.258 1.372 1.265 0 0 .138.037.193-.078.034-.073.2-.38.386-.866s.421-1.439-.071-1.812m-.797 3.371c-.035-.012-.543-.158-1.038-.474-.495-.317-.724-.787-.741-.82-.018-.032-.038-.007-.058.02-.02.028-.126.164-.845 1.22-.718 1.055-1.784 3.216-.785 3.585.64.237 1.712-.885 2.292-1.628.539-.69 1.18-1.75 1.208-1.812.027-.063.002-.078-.033-.09m15.633.643h.702s-3.511 5.077-5.496 4.847c-1.109-.128-.78-1.496-.78-1.496s-1.56 1.823-2.982 1.459c-1.297-.332-.462-2.488-.462-2.488-.148.06-2.952 3.224-4.921 2.465-2.062-.794-.994-3.442-.601-4.238.332-.671.699-1.326.699-1.326s-.317.09-.513.136c-.196.045-.495.103-.495.103s-.975 1.586-1.57 2.377c-.596.792-3.13 3.514-4.622 2.97-1.493-.542-1.125-2.629-.286-4.289 1.359-2.691 4.586-5.998 6.528-5.504 1.963.5.34 3.687.34 3.687s.39.05 1.326-.588c1.35-.92 3.125-3.395 5.052-3.106.904.136 1.747 1.064.595 2.827-.37.566-.987 1.072-1.462.573-.295-.309-.038-.877.271-1.266.437-.55 1.04-.476 1.04-.476s.317-.73-.49-.716c-.655.013-2.313 1.54-3.249 3.084-.86 1.417-2.159 3.832-.852 4.357 1.199.483 3.476-2.224 4.531-3.641 1.056-1.417 3.456-4.633 5.473-4.765.694-.045 1.109.588 1.109.588l.233-.369h2.013s-3.796 6.343-4.093 6.823c-.234.377-.543 1.221.316.746.86-.475 2.646-2.774 2.646-2.774M13.25.022c.813.09 1.792 1.03 1.175 2.412-.905 2.028-2.157 1.859-2.112.89.027-.629.446-1.025.76-1.242.2-.138.553-.178.738-.182.178-.151.315-1.26-1.143-.894S9.456 2.804 7.782 4.649C6.11 6.495 3.507 9.995 2.864 13.664c-.299 1.703-.098 4.804 3.933 4.768 3.417-.03 8.464-2.281 13.098-2.241 1.799.015 3.365.5 4.585 1.254 1.203.743 2.642 1.82 3.15 2.555-1.525-1.072-3.383-1.545-5.07-1.477-1.707.068-2.473 1.342-2.473 1.342-.771-1.342-2.293-2.166-4.645-2.146-3.799.044-7.57 1.8-10.555 1.8-2.866 0-4.954-1.8-4.885-4.997.12-5.604 4.855-10.655 8.394-12.93C10.431.285 12.135-.102 13.25.022zM63.744 0s-.469.96-1.418 2.036c-1.52 1.724-4.379 3.748-7.645 3.103a29.056 29.056 0 0 1 1.498-1.686c1.882.181 3.843-.643 5.258-1.553A13.218 13.218 0 0 0 63.503.247L63.62.13c.082-.083.125-.13.125-.13zM33.214 5.05h-1.915l-1.08 1.751h1.914zM58.086 18.716h.18a.07.07 0 0 0 .051-.018.06.06 0 0 0 .019-.046.06.06 0 0 0-.019-.047.072.072 0 0 0-.05-.017h-.181v.128zm.391.052a.201.201 0 0 1-.09.078l.172.256h-.191l-.155-.24h-.127v.24h-.168v-.658h.38c.064 0 .115.02.154.06.038.04.057.09.057.148 0 .042-.01.081-.032.116zm.025.521c.09-.05.16-.12.21-.208a.606.606 0 0 0 .074-.301.6.6 0 0 0-.075-.299.533.533 0 0 0-.21-.209.615.615 0 0 0-.306-.076.616.616 0 0 0-.306.076c-.091.05-.161.12-.21.21a.6.6 0 0 0-.075.298c0 .111.024.212.074.3.05.09.12.159.21.21.089.05.191.075.307.075a.615.615 0 0 0 .307-.076zm.075-1.14a.717.717 0 0 1 .369.63.72.72 0 0 1-.369.63.763.763 0 0 1-.382.097.763.763 0 0 1-.382-.097.722.722 0 0 1 0-1.26.762.762 0 0 1 .382-.096c.14 0 .267.032.382.097z"/>
    </g>
</svg>
