<svg xmlns="http://www.w3.org/2000/svg" xmlns:xlink="http://www.w3.org/1999/xlink" width="24" height="24" viewBox="0 0 24 24">
    <defs>
        <path id="omktrmokfa" d="M0 24L24 24 24 0 0 0z"/>
    </defs>
    <g fill="none" fill-rule="evenodd">
        <g>
            <g>
                <g>
                    <g transform="translate(-298 -254) translate(0 239) translate(295 15) translate(3)">
                        <mask id="5dknbti2sb" fill="#fff">
                            <use xlink:href="#omktrmokfa"/>
                        </mask>
                        <g stroke-width="1.5" mask="url(#5dknbti2sb)">
                            <g transform="translate(4 2)">
                                <path stroke="#DF001B" stroke-linecap="round" d="M3.5 14.5L12.5 14.5" transform="rotate(90 8 14.5)"/>
                                <path stroke="#000" d="M15.75 9.75v7.75c0 .483-.196.92-.513 1.237-.316.317-.754.513-1.237.513h0H2c-.483 0-.92-.196-1.237-.513C.446 18.421.25 17.983.25 17.5h0V9.75h15.5z"/>
                                <rect width="17.5" height="5" x="-.75" y="4.75" stroke="#000" rx="1"/>
                                <path stroke="#000" d="M11.013.75c.55 0 1.047.22 1.406.579.36.358.581.852.581 1.398 0 .57-.222 1.074-.586 1.437-.362.362-.862.586-1.414.586h0-2.422l.196-1.972c.057-.576.327-1.083.728-1.446.401-.363.932-.582 1.51-.582z"/>
                                <path stroke="#000" d="M5.513.75c.55 0 1.047.22 1.406.579.36.358.581.852.581 1.398 0 .57-.222 1.074-.586 1.437-.362.362-.862.586-1.414.586h0-2.422l.196-1.972c.057-.576.327-1.083.728-1.446C4.403.97 4.934.75 5.512.75z" transform="matrix(-1 0 0 1 10.5 0)"/>
                            </g>
                        </g>
                    </g>
                </g>
            </g>
        </g>
    </g>
</svg>
