<svg xmlns="http://www.w3.org/2000/svg" width="20" height="20" viewBox="0 0 20 20">
    <g fill="none" fill-rule="evenodd">
        <g stroke="#444">
            <g>
                <g>
                    <g>
                        <path stroke-linecap="round" d="M2.79 9.117c1.03-1.073 2.47-1.71 4.01-1.71h3.067c2.195 0 4.185 1.293 5.077 3.3l.913 2.054c.623 1.402-.009 3.043-1.41 3.666-.356.158-.74.24-1.129.24h-9.97c-1.136 0-2.113-.683-2.543-1.66-.15-.342-.234-.72-.234-1.118 0-.389.081-.773.239-1.128" transform="translate(-95 -253) translate(90 225) translate(5 28) translate(1.667 1.667)"/>
                        <path d="M8.333 7.407c2.046 0 3.704-1.658 3.704-3.703C12.037 1.658 10.379 0 8.333 0 6.288 0 4.63 1.658 4.63 3.704c0 2.045 1.658 3.703 3.703 3.703z" transform="translate(-95 -253) translate(90 225) translate(5 28) translate(1.667 1.667)"/>
                    </g>
                </g>
            </g>
        </g>
    </g>
</svg>
