<svg xmlns="http://www.w3.org/2000/svg" xmlns:xlink="http://www.w3.org/1999/xlink" width="32" height="12" viewBox="0 0 32 12">
    <defs>
        <path id="lzq2rbzz7a" d="M0 12L31 12 31 0 0 0z"/>
    </defs>
    <g fill="none" fill-rule="evenodd">
        <g>
            <g>
                <g>
                    <g>
                        <g>
                            <g>
                                <g transform="translate(-117 -525) translate(20 339) translate(20 119) translate(70 58) translate(8 9)">
                                    <path fill="#424242" d="M16.37 3.4v2.556h1.35c.99 0 1.484-.41 1.484-1.23v-.173c0-.394-.119-.685-.357-.872-.237-.188-.578-.282-1.022-.282H16.37zm-.942-.821h2.45c.385 0 .72.05 1.005.148.285.099.52.235.707.41.187.175.326.383.418.625.092.242.138.502.138.782v.2c0 .28-.05.543-.148.787-.098.245-.241.46-.431.644-.19.185-.425.33-.707.439-.281.108-.609.162-.982.162H16.37v2.68h-.942V2.58zM24.064 7.081H22.76c-.362 0-.62.07-.775.21-.156.14-.233.334-.233.582v.134c0 .254.088.438.266.553.177.114.39.172.637.172.228 0 .427-.027.595-.082.167-.054.321-.135.46-.243.128-.095.218-.205.272-.329.054-.124.08-.285.08-.482v-.515zM22.56 9.533c-.526 0-.943-.13-1.25-.391-.308-.261-.462-.62-.462-1.078v-.258c0-.445.15-.807.447-1.087.298-.28.78-.42 1.446-.42h1.322v-.305c0-.35-.084-.609-.252-.778-.168-.168-.443-.252-.823-.252-.304 0-.57.047-.794.143-.225.095-.458.222-.7.381l-.456-.686c.254-.178.54-.333.856-.463.317-.13.685-.196 1.104-.196.291 0 .557.037.798.11.241.073.449.181.623.324.175.143.31.318.41.525.098.207.147.44.147.701v3.653h-.885v-.63h-.01c-.05.096-.118.184-.204.263-.085.08-.179.148-.28.205-.14.077-.29.135-.452.177-.162.041-.357.062-.585.062zM28.191 8.407L29.561 4.239 30.531 4.239 27.83 11.612 26.993 11.316 27.668 9.533 25.776 4.239 26.774 4.239 28.153 8.407z"/>
                                    <mask id="ej1albkokb" fill="#fff">
                                        <use xlink:href="#lzq2rbzz7a"/>
                                    </mask>
                                    <path fill="#00C73C" d="M0 12.035L12 12.035 12 0 0 0z" mask="url(#ej1albkokb)"/>
                                    <path fill="#FFF" d="M6.934 8.727L5.004 5.904 5.004 8.727 2.991 8.727 2.991 3.273 5.032 3.273 6.962 6.096 6.962 3.273 8.974 3.273 8.974 8.727z" mask="url(#ej1albkokb)"/>
                                </g>
                            </g>
                        </g>
                    </g>
                </g>
            </g>
        </g>
    </g>
</svg>
