<svg xmlns="http://www.w3.org/2000/svg" width="20" height="20" viewBox="0 0 20 20">
    <g fill="none" fill-rule="evenodd" stroke="#444" stroke-linecap="round">
        <path d="M2.5 1.667h15V16.81c0 .838-.682 1.523-1.518 1.523H4.017A1.524 1.524 0 0 1 2.5 16.81v-6.43"/>
        <path d="M7.5 16.309V12.26c0-.785.7-1.428 1.558-1.428h1.884c.856 0 1.558.643 1.558 1.428v6.072M7.5 1.667v3.2C7.5 6.314 6.375 7.5 5 7.5S2.5 6.314 2.5 4.867v-3.2h5zM12.5 1.667v3.2C12.5 6.314 11.375 7.5 10 7.5S7.5 6.314 7.5 4.867v-3.2h5zM17.5 1.667v3.2C17.5 6.314 16.375 7.5 15 7.5s-2.5-1.186-2.5-2.633v-3.2h5z"/>
    </g>
</svg>
