<svg xmlns="http://www.w3.org/2000/svg" width="20" height="20" viewBox="0 0 20 20">
    <g fill="none" fill-rule="evenodd">
        <path stroke="#444" d="M5.097 4.167h9.806c2.354 0 4.264 1.809 4.264 4.04v5.253c0 2.23-1.91 4.04-4.264 4.04H5.097c-2.355 0-4.264-1.81-4.264-4.04V8.207c0-2.231 1.91-4.04 4.264-4.04z"/>
        <path stroke="#444" d="M10 7.5a3.334 3.334 0 1 1 0 6.667A3.334 3.334 0 0 1 10 7.5z"/>
        <path fill="#444" d="M4.583 6.667a.833.833 0 1 1 0 1.666.833.833 0 0 1 0-1.666"/>
        <path stroke="#444" d="M11.666 2.5H15"/>
    </g>
</svg>
