<svg xmlns="http://www.w3.org/2000/svg" width="20" height="20" viewBox="0 0 20 20">
    <g fill="none" fill-rule="evenodd">
        <g>
            <g>
                <g>
                    <g>
                        <path stroke="#444" d="M17.167 9.5v6c0 .69-.28 1.315-.733 1.768-.452.452-1.077.732-1.767.732h0-9.334c-.69 0-1.315-.28-1.767-.732-.453-.453-.733-1.078-.733-1.768h0v-6h14.334z" transform="translate(-95 -556) translate(90 182) translate(5 372) translate(0 2)"/>
                        <path stroke="#444" d="M15.833 5.333c.599 0 1.14.243 1.532.635.392.392.635.934.635 1.532h0v.667c0 .414-.168.789-.44 1.06-.27.272-.646.44-1.06.44h0-13c-.414 0-.79-.168-1.06-.44-.272-.271-.44-.646-.44-1.06h0V7.5c0-.598.243-1.14.635-1.532.392-.392.933-.635 1.532-.635h0z" transform="translate(-95 -556) translate(90 182) translate(5 372) translate(0 2)"/>
                        <path stroke="#444" stroke-linecap="round" d="M5.833 13.75L14.167 13.75" transform="translate(-95 -556) translate(90 182) translate(5 372) translate(0 2) rotate(90 10 13.75)"/>
                        <path stroke="#444" d="M12.519 1.75c.49 0 .933.198 1.253.52.321.32.52.763.52 1.253 0 .503-.2.955-.524 1.283-.325.326-.773.527-1.268.527h0-2.156l.175-1.772c.051-.514.293-.967.651-1.291.358-.324.832-.52 1.349-.52z" transform="translate(-95 -556) translate(90 182) translate(5 372) translate(0 2)"/>
                        <path stroke="#444" d="M7.936 1.75c.49 0 .932.198 1.253.52.32.32.52.763.52 1.253 0 .503-.2.955-.525 1.283-.324.326-.772.527-1.267.527h0H5.76l.176-1.772c.051-.514.293-.967.65-1.291.359-.324.833-.52 1.35-.52h0z" transform="translate(-95 -556) translate(90 182) translate(5 372) translate(0 2) matrix(-1 0 0 1 15.417 0)"/>
                    </g>
                </g>
            </g>
        </g>
    </g>
</svg>
