<?xml version="1.0" encoding="utf-8"?>
<!-- Generator: Adobe Illustrator 26.5.0, SVG Export Plug-In . SVG Version: 6.00 Build 0)  -->
<svg version="1.1" id="Layer_1" xmlns="http://www.w3.org/2000/svg" xmlns:xlink="http://www.w3.org/1999/xlink" x="0px" y="0px"
	 viewBox="0 0 20 20" style="enable-background:new 0 0 20 20;" xml:space="preserve">
<style type="text/css">
	.st0{fill:none;stroke:#444444;stroke-linecap:round;stroke-linejoin:round;}
	.st1{fill:none;stroke:#444444;stroke-linecap:round;}
</style>
<path class="st0" d="M17.2,9.2c0,4.2-1,6.7-1,6.7s-2.7-2.7-8.3-2.7c-0.8,0-2.2,0-2.2,0c-2.2,0-4-1.8-4-4v0c0,0,0,0,0,0
	c0-2.2,1.8-4,4-4c0,0,1.4,0,2.2,0c5.6,0,8.3-2.7,8.3-2.7S17.2,5.1,17.2,9.2z"/>
<path class="st1" d="M7.3,17.4c-1.2-1-1.8-2.5-1.5-4.1"/>
<line class="st1" x1="8.1" y1="13.2" x2="8.1" y2="5.2"/>
<path class="st1" d="M17.2,11.2c0.8-0.3,1.4-1.1,1.4-2c0-0.9-0.6-1.7-1.4-2"/>
</svg>
