<svg xmlns="http://www.w3.org/2000/svg" width="20" height="20" viewBox="0 0 20 20">
    <g fill="none" fill-rule="evenodd">
        <path stroke="#444" d="M5.921 4.167h8.08c1.471 0 2.626 1.106 3.153 2.604 0 0 1.665 5.034 1.847 5.729.513 1.581-.138 4.167-2.308 4.167s-2.746-1.146-6.69-1.146c-4.115 0-4.107 1.146-6.761 1.146C.587 16.667.726 13.72.934 12.5c.208-1.22 1.846-5.73 1.846-5.73.481-1.465 1.868-2.603 3.141-2.603z"/>
        <path fill="#444" d="M12.917 10.417v1.25h-1.25v-1.25h1.25zm2.083 0v1.25h-1.25v-1.25H15zm-2.083-2.084v1.25h-1.25v-1.25h1.25zm2.083 0v1.25h-1.25v-1.25H15z"/>
        <path stroke="#444" d="M6.667 8.333v3.334M8.333 10H5"/>
        <path stroke="#444" stroke-linecap="round" d="M10 2.084v2.083"/>
    </g>
</svg>
